HIERARCHY
ROOT mixamorig:Hips
{
	OFFSET 0.000000 104.274902 0.000000
	CHANNELS 6 Xposition Yposition Zposition Xrotation Yrotation Zrotation
	JOINT mixamorig:Spine
	{
		OFFSET 0.000000 10.181549 0.131524
		CHANNELS 6 Xposition Yposition Zposition Xrotation Yrotation Zrotation
		JOINT mixamorig:Spine1
		{
			OFFSET 0.000000 9.893990 -1.470706
			CHANNELS 3 Xrotation Yrotation Zrotation
			JOINT mixamorig:Spine2
			{
				OFFSET 0.000000 9.220787 -1.370637
				CHANNELS 3 Xrotation Yrotation Zrotation
				JOINT mixamorig:Neck
				{
					OFFSET 0.000000 16.740372 -2.049022
					CHANNELS 6 Xposition Yposition Zposition Xrotation Yrotation Zrotation
					JOINT mixamorig:Head
					{
						OFFSET 0.000000 9.617859 1.684976
						CHANNELS 6 Xposition Yposition Zposition Xrotation Yrotation Zrotation
						JOINT mixamorig:HeadTop_End
						{
							OFFSET 0.000000 22.037384 7.501072
							CHANNELS 6 Xposition Yposition Zposition Xrotation Yrotation Zrotation
							End Site
							{
								OFFSET 0.000000 23.106567 -2.828246
							}
						}
					}
				}
				JOINT mixamorig:RightShoulder
				{
					OFFSET -4.570000 11.014877 -2.160840
					CHANNELS 6 Xposition Yposition Zposition Xrotation Yrotation Zrotation
					JOINT mixamorig:RightArm
					{
						OFFSET -10.592867 -0.524796 -2.232105
						CHANNELS 3 Xrotation Yrotation Zrotation
						JOINT mixamorig:RightForeArm
						{
							OFFSET -27.841497 0.000000 -0.000002
							CHANNELS 3 Xrotation Yrotation Zrotation
							JOINT mixamorig:RightHand
							{
								OFFSET -28.328812 0.000000 -0.000001
								CHANNELS 3 Xrotation Yrotation Zrotation
								JOINT mixamorig:RightHandThumb1
								{
									OFFSET -2.464798 -1.573990 2.681911
									CHANNELS 6 Xposition Yposition Zposition Xrotation Yrotation Zrotation
									JOINT mixamorig:RightHandThumb2
									{
										OFFSET -3.244781 -1.873383 1.873376
										CHANNELS 3 Xrotation Yrotation Zrotation
										JOINT mixamorig:RightHandThumb3
										{
											OFFSET -2.646263 -1.527817 1.527818
											CHANNELS 6 Xposition Yposition Zposition Xrotation Yrotation Zrotation
											JOINT mixamorig:RightHandThumb4
											{
												OFFSET -1.994591 -1.151581 1.151575
												CHANNELS 6 Xposition Yposition Zposition Xrotation Yrotation Zrotation
												End Site
												{
													OFFSET -1.860176 -1.142715 1.365483
												}
											}
										}
									}
								}
								JOINT mixamorig:RightHandIndex1
								{
									OFFSET -9.108299 -0.517883 2.259803
									CHANNELS 6 Xposition Yposition Zposition Xrotation Yrotation Zrotation
									JOINT mixamorig:RightHandIndex2
									{
										OFFSET -3.699997 0.000000 0.000000
										CHANNELS 3 Xrotation Yrotation Zrotation
										JOINT mixamorig:RightHandIndex3
										{
											OFFSET -2.850006 0.000000 0.000000
											CHANNELS 3 Xrotation Yrotation Zrotation
											JOINT mixamorig:RightHandIndex4
											{
												OFFSET -2.772194 0.000000 0.000000
												CHANNELS 3 Xrotation Yrotation Zrotation
												End Site
												{
													OFFSET -2.772202 0.000000 -0.000484
												}
											}
										}
									}
								}
								JOINT mixamorig:RightHandMiddle1
								{
									OFFSET -9.532501 0.000000 -0.000000
									CHANNELS 6 Xposition Yposition Zposition Xrotation Yrotation Zrotation
									JOINT mixamorig:RightHandMiddle2
									{
										OFFSET -3.699997 0.000000 0.000000
										CHANNELS 3 Xrotation Yrotation Zrotation
										JOINT mixamorig:RightHandMiddle3
										{
											OFFSET -2.949997 0.000000 0.000000
											CHANNELS 3 Xrotation Yrotation Zrotation
											JOINT mixamorig:RightHandMiddle4
											{
												OFFSET -2.946594 0.000000 0.000000
												CHANNELS 3 Xrotation Yrotation Zrotation
												End Site
												{
													OFFSET -2.946602 0.000000 -0.000982
												}
											}
										}
									}
								}
								JOINT mixamorig:RightHandRing1
								{
									OFFSET -9.103600 -0.043106 -1.865100
									CHANNELS 6 Xposition Yposition Zposition Xrotation Yrotation Zrotation
									JOINT mixamorig:RightHandRing2
									{
										OFFSET -3.379303 0.000000 0.000000
										CHANNELS 3 Xrotation Yrotation Zrotation
										JOINT mixamorig:RightHandRing3
										{
											OFFSET -2.889694 0.000000 0.000000
											CHANNELS 3 Xrotation Yrotation Zrotation
											JOINT mixamorig:RightHandRing4
											{
												OFFSET -2.638802 0.000000 0.000000
												CHANNELS 3 Xrotation Yrotation Zrotation
												End Site
												{
													OFFSET -2.638802 0.000000 0.004218
												}
											}
										}
									}
								}
								JOINT mixamorig:RightHandPinky1
								{
									OFFSET -8.076698 -0.486725 -3.806299
									CHANNELS 6 Xposition Yposition Zposition Xrotation Yrotation Zrotation
									JOINT mixamorig:RightHandPinky2
									{
										OFFSET -3.600006 0.000000 0.000000
										CHANNELS 3 Xrotation Yrotation Zrotation
										JOINT mixamorig:RightHandPinky3
										{
											OFFSET -2.099998 0.000000 0.000000
											CHANNELS 3 Xrotation Yrotation Zrotation
											JOINT mixamorig:RightHandPinky4
											{
												OFFSET -2.115791 0.000000 0.000000
												CHANNELS 3 Xrotation Yrotation Zrotation
												End Site
												{
													OFFSET -2.115799 0.000000 0.000174
												}
											}
										}
									}
								}
							}
						}
					}
				}
				JOINT mixamorig:LeftShoulder
				{
					OFFSET 4.570400 11.014679 -2.160816
					CHANNELS 6 Xposition Yposition Zposition Xrotation Yrotation Zrotation
					JOINT mixamorig:LeftArm
					{
						OFFSET 10.592373 -0.524597 -2.232116
						CHANNELS 3 Xrotation Yrotation Zrotation
						JOINT mixamorig:LeftForeArm
						{
							OFFSET 27.841488 0.000000 0.000001
							CHANNELS 3 Xrotation Yrotation Zrotation
							JOINT mixamorig:LeftHand
							{
								OFFSET 28.328808 0.000000 -0.000000
								CHANNELS 3 Xrotation Yrotation Zrotation
								JOINT mixamorig:LeftHandThumb1
								{
									OFFSET 2.466103 -1.576202 2.681698
									CHANNELS 6 Xposition Yposition Zposition Xrotation Yrotation Zrotation
									JOINT mixamorig:LeftHandThumb2
									{
										OFFSET 3.243317 -1.872528 1.872530
										CHANNELS 3 Xrotation Yrotation Zrotation
										JOINT mixamorig:LeftHandThumb3
										{
											OFFSET 2.647881 -1.528763 1.528754
											CHANNELS 6 Xposition Yposition Zposition Xrotation Yrotation Zrotation
											JOINT mixamorig:LeftHandThumb4
											{
												OFFSET 1.998924 -1.154083 1.154080
												CHANNELS 6 Xposition Yposition Zposition Xrotation Yrotation Zrotation
												End Site
												{
													OFFSET 1.884041 -1.149155 1.337651
												}
											}
										}
									}
								}
								JOINT mixamorig:LeftHandIndex1
								{
									OFFSET 9.109299 -0.518005 2.259900
									CHANNELS 6 Xposition Yposition Zposition Xrotation Yrotation Zrotation
									JOINT mixamorig:LeftHandIndex2
									{
										OFFSET 3.699997 0.000000 0.000000
										CHANNELS 3 Xrotation Yrotation Zrotation
										JOINT mixamorig:LeftHandIndex3
										{
											OFFSET 2.850006 0.000000 0.000000
											CHANNELS 3 Xrotation Yrotation Zrotation
											JOINT mixamorig:LeftHandIndex4
											{
												OFFSET 2.774895 0.000000 0.000000
												CHANNELS 3 Xrotation Yrotation Zrotation
												End Site
												{
													OFFSET 2.774902 0.000000 -0.000072
												}
											}
										}
									}
								}
								JOINT mixamorig:LeftHandMiddle1
								{
									OFFSET 9.533401 0.000000 0.000000
									CHANNELS 6 Xposition Yposition Zposition Xrotation Yrotation Zrotation
									JOINT mixamorig:LeftHandMiddle2
									{
										OFFSET 3.699997 0.000000 0.000000
										CHANNELS 3 Xrotation Yrotation Zrotation
										JOINT mixamorig:LeftHandMiddle3
										{
											OFFSET 2.949997 0.000000 0.000000
											CHANNELS 3 Xrotation Yrotation Zrotation
											JOINT mixamorig:LeftHandMiddle4
											{
												OFFSET 2.952896 0.000000 0.000000
												CHANNELS 3 Xrotation Yrotation Zrotation
												End Site
												{
													OFFSET 2.952904 0.000000 0.000165
												}
											}
										}
									}
								}
								JOINT mixamorig:LeftHandRing1
								{
									OFFSET 9.104500 -0.042999 -1.865101
									CHANNELS 6 Xposition Yposition Zposition Xrotation Yrotation Zrotation
									JOINT mixamorig:LeftHandRing2
									{
										OFFSET 3.149994 0.000000 0.000000
										CHANNELS 3 Xrotation Yrotation Zrotation
										JOINT mixamorig:LeftHandRing3
										{
											OFFSET 2.950005 0.000000 0.000000
											CHANNELS 3 Xrotation Yrotation Zrotation
											JOINT mixamorig:LeftHandRing4
											{
												OFFSET 2.644302 0.000000 0.000000
												CHANNELS 3 Xrotation Yrotation Zrotation
												End Site
												{
													OFFSET 2.644302 0.000000 0.000083
												}
											}
										}
									}
								}
								JOINT mixamorig:LeftHandPinky1
								{
									OFFSET 8.077805 -0.486893 -3.806302
									CHANNELS 6 Xposition Yposition Zposition Xrotation Yrotation Zrotation
									JOINT mixamorig:LeftHandPinky2
									{
										OFFSET 3.600006 0.000000 0.000000
										CHANNELS 3 Xrotation Yrotation Zrotation
										JOINT mixamorig:LeftHandPinky3
										{
											OFFSET 2.099998 0.000000 0.000000
											CHANNELS 3 Xrotation Yrotation Zrotation
											JOINT mixamorig:LeftHandPinky4
											{
												OFFSET 2.125496 0.000000 0.000000
												CHANNELS 3 Xrotation Yrotation Zrotation
												End Site
												{
													OFFSET 2.125504 0.000000 -0.001254
												}
											}
										}
									}
								}
							}
						}
					}
				}
			}
		}
	}
	JOINT mixamorig:RightUpLeg
	{
		OFFSET -8.207800 -6.751701 -1.599544
		CHANNELS 6 Xposition Yposition Zposition Xrotation Yrotation Zrotation
		JOINT mixamorig:RightLeg
		{
			OFFSET 0.000004 -44.370152 0.345934
			CHANNELS 3 Xrotation Yrotation Zrotation
			JOINT mixamorig:RightFoot
			{
				OFFSET 0.000004 -44.423664 -3.043535
				CHANNELS 3 Xrotation Yrotation Zrotation
				JOINT mixamorig:RightToeBase
				{
					OFFSET 0.000001 -8.728691 10.710592
					CHANNELS 3 Xrotation Yrotation Zrotation
					JOINT mixamorig:RightToe_End
					{
						OFFSET 0.000000 -0.000665 9.278101
						CHANNELS 3 Xrotation Yrotation Zrotation
						End Site
						{
							OFFSET 0.000000 -0.000665 9.278103
						}
					}
				}
			}
		}
	}
	JOINT mixamorig:LeftUpLeg
	{
		OFFSET 8.207800 -6.751701 -1.599544
		CHANNELS 6 Xposition Yposition Zposition Xrotation Yrotation Zrotation
		JOINT mixamorig:LeftLeg
		{
			OFFSET 0.000004 -44.370037 0.346940
			CHANNELS 3 Xrotation Yrotation Zrotation
			JOINT mixamorig:LeftFoot
			{
				OFFSET 0.000004 -44.423611 -3.044388
				CHANNELS 3 Xrotation Yrotation Zrotation
				JOINT mixamorig:LeftToeBase
				{
					OFFSET 0.000001 -8.728690 10.710592
					CHANNELS 3 Xrotation Yrotation Zrotation
					JOINT mixamorig:LeftToe_End
					{
						OFFSET 0.000000 -0.000680 9.278101
						CHANNELS 3 Xrotation Yrotation Zrotation
						End Site
						{
							OFFSET 0.000000 -0.000680 9.278101
						}
					}
				}
			}
		}
	}
}
MOTION
Frames: 4
Frame Time: 0.033333
-0.029401 61.664612 3.541127 0.143796 0.063810 0.992516 -0.000000 10.181547 0.131522 10.431241 -0.037564 -1.590707 -0.198648 0.215228 -0.355775 -0.198986 0.249962 -0.301032 0.000000 16.740337 -2.049020 -1.001769 -1.284342 0.482995 -0.000002 9.617848 1.684980 -8.882789 -4.328918 -5.308122 0.000002 22.037369 7.501074 -0.000000 -0.000000 -0.000000 -4.570003 11.014869 -2.160840 3.224852 -4.512339 8.719762 -3.841068 37.866535 63.434972 -0.000054 55.008335 0.000094 43.041718 4.608050 -36.504510 -2.464795 -1.573991 2.681906 -9.383515 -1.613328 -17.604707 3.556975 -24.336990 34.656855 -2.646274 -1.527790 1.527812 -6.614983 -37.492735 -11.204393 -1.994587 -1.151582 1.151580 0.000006 -0.000001 0.000001 -9.108299 -0.517880 2.259802 3.023799 0.972933 13.527176 0.472466 -2.045706 26.006739 0.059748 -0.744392 9.177794 -0.000001 0.000000 0.000002 -9.532500 -0.000003 -0.000001 0.106279 -3.681951 2.523537 0.585085 -2.261845 29.002803 0.020456 -0.436574 5.367145 -0.000000 0.000001 -0.000003 -9.103606 -0.043106 -1.865105 0.456129 -7.647330 4.299617 0.107556 -0.996171 12.324776 0.072394 -0.818831 10.104469 -0.000002 0.000001 -0.000001 -8.076694 -0.486709 -3.806304 -11.221255 -10.151375 7.185370 0.029113 -0.520511 6.403071 0.028642 -0.516319 6.351264 -0.000000 0.000002 0.000001 4.570399 11.014696 -2.160817 0.823564 -15.261926 -7.868626 4.742987 -21.213309 -54.866797 0.000066 -62.202902 0.000079 31.071586 4.313751 41.764090 2.466103 -1.576204 2.681703 6.610705 1.798341 20.801503 2.716351 20.172580 -24.389178 2.647884 -1.528765 1.528751 -5.537215 29.849535 5.070913 1.998918 -1.154077 1.154084 0.000003 -0.000000 -0.000004 9.109315 -0.518018 2.259900 -0.235338 2.798457 -26.913097 0.396791 2.121317 -21.189303 0.083104 0.984477 -9.653145 0.000000 -0.000001 0.000002 9.533409 0.000016 0.000001 1.299098 7.334835 -16.508291 0.330058 1.940470 -19.305929 0.233099 1.637797 -16.201257 0.000001 -0.000001 0.000001 9.104498 -0.042987 -1.865098 1.790480 9.805423 -14.128900 0.205962 1.541383 -15.223105 0.265302 1.744765 -17.292050 0.000003 0.000000 0.000003 8.077806 -0.486902 -3.806302 2.038843 10.851936 -13.922459 0.168432 1.396208 -13.758908 0.107147 1.116579 -10.963895 -0.000002 -0.000001 0.000004 -8.207802 -6.751704 -1.599545 -86.503697 6.479319 -7.768217 82.290870 -6.149110 -1.863351 5.455299 -0.020820 7.089351 -0.191611 0.000006 0.000002 -0.000000 -0.000000 0.000000 8.207799 -6.751698 -1.599542 -85.817563 -4.812115 11.305627 82.493099 6.435563 0.240179 4.315881 -7.027136 -6.115577 -0.103106 -0.000004 -0.000000 0.000000 0.000000 0.000000 
0.005032 61.432808 3.351817 -0.517235 0.093695 1.419129 0.000000 10.181550 0.131524 10.119122 -0.129903 -1.634998 0.744065 0.161781 -0.498329 0.743400 0.195415 -0.450474 0.000000 16.740377 -2.049018 -1.128779 -1.139729 0.482994 -0.000000 9.617830 1.684976 -9.903029 -3.708485 -4.812149 -0.000001 22.037369 7.501072 -0.000000 0.000000 -0.000000 -4.569998 11.014893 -2.160841 3.099746 -4.245642 9.084157 -3.788519 38.539520 62.080361 -0.000032 55.694138 0.000089 42.001439 4.426517 -37.440160 -2.464797 -1.573997 2.681910 -9.271141 -1.753178 -17.572212 3.457463 -24.292930 34.688526 -2.646276 -1.527809 1.527814 -6.612008 -37.410548 -11.160129 -1.994578 -1.151587 1.151567 -0.000002 -0.000000 -0.000002 -9.108302 -0.517882 2.259805 3.020210 0.971069 13.590533 0.474783 -2.050446 26.071532 0.059577 -0.743362 9.164765 -0.000000 -0.000000 0.000001 -9.532496 -0.000004 0.000000 0.107015 -3.684344 2.553198 0.583451 -2.258912 28.961518 0.019868 -0.430145 5.288002 -0.000000 -0.000002 0.000002 -9.103603 -0.043111 -1.865101 0.457458 -7.693360 4.271791 0.105158 -0.985134 12.185928 0.073020 -0.822301 10.148028 -0.000004 0.000002 -0.000001 -8.076695 -0.486706 -3.806304 -11.224159 -10.145351 7.163897 0.028329 -0.513550 6.317271 0.028086 -0.511305 6.289359 -0.000002 0.000001 0.000002 4.570402 11.014702 -2.160815 0.924361 -15.650581 -7.075995 3.875081 -21.743742 -54.627973 0.000001 -61.976064 0.000015 30.239095 4.100828 42.399455 2.466099 -1.576200 2.681700 6.806858 1.913582 20.714082 2.601821 20.164023 -24.341981 2.647885 -1.528758 1.528751 -5.482893 29.993662 5.020452 1.998925 -1.154083 1.154083 -0.000000 -0.000002 -0.000000 9.109297 -0.518013 2.259898 -0.249608 2.815837 -27.150731 0.394111 2.114370 -21.116577 0.082400 0.980205 -9.610769 -0.000002 -0.000002 -0.000000 9.533407 0.000029 0.000000 1.305501 7.351077 -16.531730 0.331879 1.945699 -19.359915 0.229285 1.624625 -16.067269 0.000003 -0.000000 -0.000001 9.104495 -0.043008 -1.865103 1.797702 9.833716 -14.127156 0.204410 1.535593 -15.164639 0.262238 1.734954 -17.191793 0.000001 -0.000000 0.000004 8.077801 -0.486905 -3.806305 2.035591 10.850462 -13.900401 0.168138 1.394979 -13.746429 0.104133 1.100912 -10.808243 -0.000003 -0.000001 0.000002 -8.207801 -6.751712 -1.599537 -86.797484 6.279938 -7.952948 83.556477 -6.656880 -1.933088 6.543376 -0.324155 6.697513 -1.192075 0.000537 -0.130519 -0.000000 0.000002 0.000000 8.207801 -6.751703 -1.599557 -85.602624 -4.325324 10.861085 83.410468 5.139245 0.145894 3.505647 -6.252982 -6.083209 -0.780453 0.000004 0.000000 -0.000000 -0.000001 0.000000 
0.052731 61.426292 3.017847 -1.250479 0.148170 1.724329 -0.000000 10.181549 0.131523 9.957817 -0.228053 -1.646193 2.131107 0.136278 -0.551757 2.130326 0.164262 -0.510765 0.000000 16.740379 -2.049022 -1.448863 -0.977928 0.422267 -0.000001 9.617861 1.684980 -12.268531 -3.078279 -4.290578 0.000001 22.037369 7.501073 -0.000000 0.000000 -0.000000 -4.569999 11.014863 -2.160840 2.900747 -4.122073 8.946471 -4.468890 39.805741 60.961214 -0.000072 56.065113 0.000114 40.607274 4.251492 -38.750645 -2.464797 -1.573989 2.681906 -9.158853 -1.892907 -17.539188 3.389128 -24.221608 34.730293 -2.646269 -1.527825 1.527814 -6.613048 -37.323401 -11.119758 -1.994584 -1.151581 1.151562 0.000002 -0.000001 0.000003 -9.108298 -0.517864 2.259804 3.016617 0.969171 13.653884 0.477107 -2.055186 26.136359 0.059414 -0.742306 9.151731 -0.000000 0.000001 0.000002 -9.532498 0.000018 -0.000001 0.107734 -3.686727 2.582850 0.581822 -2.255974 28.920278 0.019276 -0.423740 5.208868 -0.000000 -0.000001 -0.000000 -9.103596 -0.043106 -1.865101 0.458735 -7.739449 4.243993 0.102791 -0.974061 12.047071 0.073638 -0.825808 10.191581 -0.000001 -0.000000 0.000001 -8.076696 -0.486701 -3.806304 -11.227082 -10.139305 7.142443 0.027579 -0.506616 6.231429 0.027538 -0.506298 6.227460 0.000003 -0.000000 -0.000000 4.570400 11.014676 -2.160815 1.030913 -15.353372 -6.030476 2.863622 -23.692477 -53.778860 -0.000018 -61.797325 -0.000018 28.362741 3.669206 43.903677 2.466098 -1.576204 2.681698 7.003012 2.028270 20.625865 2.487285 20.155373 -24.294891 2.647886 -1.528754 1.528757 -5.428552 30.137807 4.969858 1.998928 -1.154095 1.154083 0.000001 0.000002 0.000001 9.109289 -0.518015 2.259897 -0.263825 2.833369 -27.388357 0.391438 2.107444 -21.043871 0.081664 0.975914 -9.568424 0.000000 0.000001 0.000000 9.533395 -0.000001 -0.000002 1.311904 7.367314 -16.555173 0.333721 1.950911 -19.413918 0.225507 1.611428 -15.933283 0.000002 0.000001 0.000001 9.104496 -0.042991 -1.865104 1.805032 9.862409 -14.125372 0.202847 1.529911 -15.107045 0.259231 1.725127 -17.091534 -0.000003 -0.000000 -0.000000 8.077806 -0.486887 -3.806306 2.032349 10.849002 -13.878466 0.167818 1.393712 -13.733858 0.101167 1.085252 -10.652593 -0.000001 0.000001 -0.000000 -8.207800 -6.751704 -1.599549 -86.787963 5.981592 -8.100648 84.457666 -7.359024 -2.005398 7.568942 -0.629255 6.448604 -2.009805 -0.000007 -0.000003 -0.000000 -0.000002 -0.000000 8.207799 -6.751704 -1.599550 -85.510984 -3.523860 10.485954 84.703676 2.811369 -0.136876 3.930818 -5.289517 -5.139804 -1.481704 0.000002 -0.000000 0.000000 0.000000 0.000000 
0.108646 61.443672 2.614251 -1.952402 0.112021 2.072572 0.000000 10.181557 0.131522 10.001628 -0.265622 -1.578404 4.036821 0.209412 -0.507877 4.036276 0.229378 -0.474147 0.000000 16.740355 -2.049022 -2.338481 -0.807855 0.177230 -0.000001 9.617857 1.684972 -15.554093 -2.562437 -3.903568 -0.000002 22.037369 7.501077 -0.000000 -0.000000 0.000000 -4.570000 11.014876 -2.160844 2.564042 -4.481376 7.706015 -6.224821 41.455550 60.911436 -0.000015 56.651648 0.000054 39.297446 3.913503 -40.636228 -2.464799 -1.573989 2.681911 -9.046667 -2.032537 -17.505635 3.321046 -24.150087 34.772558 -2.646264 -1.527810 1.527815 -6.616522 -37.236047 -11.082739 -1.994578 -1.151583 1.151573 -0.000001 0.000000 -0.000002 -9.108298 -0.517881 2.259803 3.013025 0.967322 13.717255 0.479432 -2.059925 26.201205 0.059244 -0.741252 9.138708 0.000001 -0.000002 0.000000 -9.532490 0.000006 0.000001 0.108461 -3.689091 2.612519 0.580197 -2.253029 28.879027 0.018696 -0.417320 5.129730 -0.000001 -0.000002 -0.000001 -9.103600 -0.043121 -1.865101 0.459906 -7.786096 4.214906 0.100463 -0.963098 11.909340 0.074268 -0.829306 10.235160 0.000000 0.000001 0.000001 -8.076695 -0.486703 -3.806300 -11.229990 -10.133273 7.120961 0.026816 -0.499659 6.145655 0.026981 -0.501278 6.165542 0.000001 0.000001 0.000001 4.570400 11.014674 -2.160819 1.126508 -14.338695 -4.690763 1.524076 -27.188362 -52.378098 -0.000018 -61.659826 -0.000006 25.635512 3.000976 46.278831 2.466101 -1.576198 2.681698 7.199157 2.142408 20.536837 2.372745 20.146650 -24.247902 2.647893 -1.528737 1.528752 -5.374085 30.281965 4.919052 1.998932 -1.154076 1.154077 0.000003 0.000001 0.000003 9.109295 -0.518015 2.259898 -0.277972 2.851109 -27.625998 0.388772 2.100489 -20.971182 0.080941 0.971634 -9.526102 -0.000001 -0.000000 -0.000001 9.533401 0.000003 -0.000002 1.318326 7.383552 -16.578628 0.335566 1.956117 -19.467916 0.221757 1.598224 -15.799329 -0.000003 -0.000001 -0.000002 9.104508 -0.043006 -1.865102 1.812458 9.891490 -14.123569 0.201350 1.524297 -15.050298 0.256211 1.715329 -16.991274 0.000000 -0.000000 -0.000000 8.077819 -0.486892 -3.806302 2.029109 10.847548 -13.856593 0.167521 1.392463 -13.721255 0.098242 1.069583 -10.496969 0.000002 -0.000002 0.000001 -8.207801 -6.751706 -1.599541 -86.751052 5.655798 -8.236532 85.175198 -7.985004 -2.078151 8.573690 -0.937705 6.075480 -3.230034 0.000006 0.000002 -0.000000 0.000001 -0.000000 8.207801 -6.751711 -1.599557 -85.549383 -2.523920 10.178024 86.152714 0.147161 -0.511146 5.020434 -4.241206 -3.784114 -2.351139 -0.000003 0.000003 0.000000 0.000000 0.000000 
